<svg width="27" height="27" viewBox="0 0 27 27" fill="none" xmlns="http://www.w3.org/2000/svg">
<path d="M13.5 25.3125L8.28901 22.534C6.80332 21.7438 5.56091 20.5639 4.69517 19.121C3.82942 17.678 3.37303 16.0265 3.37501 14.3438V3.375C3.37501 2.92745 3.5528 2.49822 3.86926 2.18176C4.18573 1.86529 4.61495 1.6875 5.06251 1.6875H21.9375C22.3851 1.6875 22.8143 1.86529 23.1307 2.18176C23.4472 2.49822 23.625 2.92745 23.625 3.375V14.3438C23.627 16.0265 23.1706 17.678 22.3048 19.121C21.4391 20.5639 20.1967 21.7438 18.711 22.534L13.5 25.3125ZM5.06251 3.375V14.3438C5.06157 15.7205 5.43534 17.0715 6.14375 18.252C6.85217 19.4325 7.86851 20.3979 9.08382 21.0448L13.5 23.3997L17.9162 21.0457C19.1316 20.3987 20.1481 19.4332 20.8565 18.2525C21.5649 17.0718 21.9386 15.7206 21.9375 14.3438V3.375H5.06251Z" fill="black"/>
<path d="M13.5 21.3275V5.0625H20.25V14.1792C20.2499 15.2487 19.9595 16.2981 19.4097 17.2154C18.8599 18.1327 18.0713 18.8835 17.1281 19.3877L13.5 21.3275Z" fill="black"/>
</svg>
