<svg width="26" height="26" viewBox="0 0 26 26" fill="none" xmlns="http://www.w3.org/2000/svg">
<path d="M12.5661 0.785645C7.41969 0.785645 3.05896 4.08566 1.44824 8.64282H23.684C22.0733 4.08566 17.7126 0.785645 12.5661 0.785645Z" fill="#428BC1"/>
<path d="M12.5661 24.3572C17.7126 24.3572 22.0733 21.0964 23.684 16.5H1.44824C3.05896 21.0964 7.41969 24.3572 12.5661 24.3572Z" fill="#83BF4F"/>
<path d="M1.44813 8.64288C1.01599 9.86074 0.780273 11.1965 0.780273 12.5715C0.780273 13.9465 1.01599 15.2822 1.44813 16.5001H23.6839C24.1161 15.2822 24.3518 13.9465 24.3518 12.5715C24.3518 11.1965 24.1161 9.86074 23.6839 8.64288H1.44813Z" fill="#ED4C5C"/>
<path d="M12.4122 15.7929C10.6444 15.7929 9.1908 14.3394 9.1908 12.5715C9.1908 10.8036 10.6444 9.35005 12.4122 9.35005C12.8444 9.35005 13.2372 9.42862 13.5908 9.58577C12.9622 9.11434 12.1765 8.80005 11.3122 8.80005C9.23008 8.80005 7.58008 10.4893 7.58008 12.5715C7.58008 14.6536 9.26937 16.3429 11.3122 16.3429C12.1765 16.3429 12.9622 16.0679 13.5908 15.5572C13.2372 15.7144 12.8444 15.7929 12.4122 15.7929ZM15.8694 13.1215L15.0051 13.7108L15.5551 12.8072L14.5337 12.5715L15.5551 12.3358L14.9658 11.4715L15.8694 12.0215L16.1051 11.0001L16.3408 12.0215L17.2051 11.4322L16.6551 12.3358L17.6765 12.5715L16.6551 12.8072L17.2444 13.6715L16.3408 13.1215L16.1051 14.1429L15.8694 13.1215Z" fill="white"/>
</svg>
