<svg width="27" height="27" viewBox="0 0 27 27" fill="none" xmlns="http://www.w3.org/2000/svg">
<path d="M13.5 3.37793C13.0572 3.37793 12.6188 3.46514 12.2097 3.63458C11.8007 3.80402 11.429 4.05237 11.1159 4.36546C10.8028 4.67854 10.5545 5.05023 10.385 5.45929C10.2156 5.86835 10.1284 6.30679 10.1284 6.74955C10.1284 7.19232 10.2156 7.63076 10.385 8.03982C10.5545 8.44888 10.8028 8.82057 11.1159 9.13365C11.429 9.44674 11.8007 9.69509 12.2097 9.86453C12.6188 10.034 13.0572 10.1212 13.5 10.1212C14.3942 10.1212 15.2518 9.76596 15.8841 9.13365C16.5164 8.50135 16.8716 7.64376 16.8716 6.74955C16.8716 5.85534 16.5164 4.99776 15.8841 4.36546C15.2518 3.73315 14.3942 3.37793 13.5 3.37793ZM21.0938 5.06205C20.4224 5.06205 19.7786 5.32874 19.3039 5.80344C18.8292 6.27814 18.5625 6.92198 18.5625 7.5933C18.5625 8.26463 18.8292 8.90847 19.3039 9.38317C19.7786 9.85787 20.4224 10.1246 21.0938 10.1246C21.7651 10.1246 22.4089 9.85787 22.8836 9.38317C23.3583 8.90847 23.625 8.26463 23.625 7.5933C23.625 6.92198 23.3583 6.27814 22.8836 5.80344C22.4089 5.32874 21.7651 5.06205 21.0938 5.06205ZM5.90625 5.06205C5.23492 5.06205 4.59109 5.32874 4.11639 5.80344C3.64168 6.27814 3.375 6.92198 3.375 7.5933C3.375 8.26463 3.64168 8.90847 4.11639 9.38317C4.59109 9.85787 5.23492 10.1246 5.90625 10.1246C6.57758 10.1246 7.22141 9.85787 7.69611 9.38317C8.17082 8.90847 8.4375 8.26463 8.4375 7.5933C8.4375 6.92198 8.17082 6.27814 7.69611 5.80344C7.22141 5.32874 6.57758 5.06205 5.90625 5.06205ZM8.4375 13.4877C8.44062 13.0422 8.61978 12.616 8.93591 12.3021C9.25204 11.9882 9.67949 11.812 10.125 11.8121H16.875C17.3226 11.8121 17.7518 11.9898 18.0682 12.3063C18.3847 12.6228 18.5625 13.052 18.5625 13.4996V18.5621C18.5629 19.0932 18.4798 19.6211 18.3161 20.1264C17.9425 21.2717 17.1727 22.2463 16.1452 22.8751C15.1176 23.504 13.8995 23.7459 12.7096 23.5575C11.5197 23.3691 10.436 22.7626 9.65298 21.8471C8.86998 20.9315 8.43902 19.7668 8.4375 18.5621V13.4877ZM6.75 13.4996C6.75 12.8836 6.91369 12.3082 7.20225 11.8121H3.375C2.92745 11.8121 2.49823 11.9898 2.18176 12.3063C1.86529 12.6228 1.6875 13.052 1.6875 13.4996V17.7183C1.68727 18.409 1.85663 19.0892 2.18071 19.6992C2.50479 20.3091 2.97367 20.8302 3.54618 21.2166C4.11869 21.6029 4.77732 21.8429 5.46422 21.9152C6.15112 21.9876 6.84528 21.8902 7.48575 21.6316C7.00109 20.6805 6.74894 19.6279 6.75 18.5604V13.4996ZM20.25 13.4996V18.5621C20.25 19.6674 19.9851 20.7102 19.5142 21.6316C20.1547 21.8902 20.8489 21.9876 21.5358 21.9152C22.2227 21.8429 22.8813 21.6029 23.4538 21.2166C24.0263 20.8302 24.4952 20.3091 24.8193 19.6992C25.1434 19.0892 25.3127 18.409 25.3125 17.7183V13.4996C25.3125 13.052 25.1347 12.6228 24.8182 12.3063C24.5018 11.9898 24.0726 11.8121 23.625 11.8121H19.7978C20.0846 12.3082 20.25 12.8836 20.25 13.4996Z" fill="black"/>
</svg>
