<svg width="23" height="25" viewBox="0 0 23 25" fill="none" xmlns="http://www.w3.org/2000/svg">
<path d="M11.5 0.25C11.7984 0.25 12.0845 0.368526 12.2955 0.579505C12.5065 0.790483 12.625 1.07663 12.625 1.375V1.43687C14.9075 1.69271 17.0352 2.71664 18.6593 4.3407C20.2834 5.96476 21.3073 8.09253 21.5631 10.375H21.625C21.9234 10.375 22.2095 10.4935 22.4205 10.7045C22.6315 10.9155 22.75 11.2016 22.75 11.5C22.75 11.7984 22.6315 12.0845 22.4205 12.2955C22.2095 12.5065 21.9234 12.625 21.625 12.625H21.5631C21.3073 14.9075 20.2834 17.0352 18.6593 18.6593C17.0352 20.2834 14.9075 21.3073 12.625 21.5631V21.625C12.625 21.9234 12.5065 22.2095 12.2955 22.4205C12.0845 22.6315 11.7984 22.75 11.5 22.75C11.2016 22.75 10.9155 22.6315 10.7045 22.4205C10.4935 22.2095 10.375 21.9234 10.375 21.625V21.5631C8.09253 21.3073 5.96476 20.2834 4.3407 18.6593C2.71664 17.0352 1.69271 14.9075 1.43687 12.625H1.375C1.07663 12.625 0.790483 12.5065 0.579505 12.2955C0.368526 12.0845 0.25 11.7984 0.25 11.5C0.25 11.2016 0.368526 10.9155 0.579505 10.7045C0.790483 10.4935 1.07663 10.375 1.375 10.375H1.43687C1.69271 8.09253 2.71664 5.96476 4.3407 4.3407C5.96476 2.71664 8.09253 1.69271 10.375 1.43687V1.375C10.375 1.07663 10.4935 0.790483 10.7045 0.579505C10.9155 0.368526 11.2016 0.25 11.5 0.25ZM12.625 3.70375V4.75C12.6247 5.03674 12.5149 5.31254 12.318 5.52104C12.1212 5.72954 11.8522 5.85501 11.5659 5.87182C11.2797 5.88862 10.9978 5.79549 10.7779 5.61145C10.5581 5.42741 10.4167 5.16636 10.3829 4.88162L10.375 4.75V3.70375C8.74152 3.94101 7.22366 4.68483 6.03529 5.83041C4.84693 6.97598 4.04797 8.46556 3.751 10.0892L3.70487 10.375H4.75C5.03674 10.3753 5.31254 10.4851 5.52104 10.682C5.72954 10.8788 5.85501 11.1478 5.87182 11.4341C5.88862 11.7203 5.79549 12.0022 5.61145 12.2221C5.42741 12.4419 5.16636 12.5833 4.88162 12.6171L4.75 12.625H3.70375C3.94101 14.2585 4.68483 15.7763 5.83041 16.9647C6.97598 18.1531 8.46556 18.952 10.0892 19.249L10.375 19.2951V18.25C10.3753 17.9633 10.4851 17.6875 10.682 17.479C10.8788 17.2705 11.1478 17.145 11.4341 17.1282C11.7203 17.1114 12.0022 17.2045 12.2221 17.3885C12.4419 17.5726 12.5833 17.8336 12.6171 18.1184L12.625 18.25V19.2962C14.2585 19.059 15.7763 18.3152 16.9647 17.1696C18.1531 16.024 18.952 14.5344 19.249 12.9107L19.2951 12.625H18.25C17.9633 12.6247 17.6875 12.5149 17.479 12.318C17.2705 12.1212 17.145 11.8522 17.1282 11.5659C17.1114 11.2797 17.2045 10.9978 17.3885 10.7779C17.5726 10.5581 17.8336 10.4167 18.1184 10.3829L18.25 10.375H19.2962C19.059 8.74152 18.3152 7.22366 17.1696 6.03529C16.024 4.84693 14.5344 4.04797 12.9107 3.751L12.625 3.70375ZM11.5 9.8125C11.9476 9.8125 12.3768 9.99029 12.6932 10.3068C13.0097 10.6232 13.1875 11.0524 13.1875 11.5C13.1875 11.9476 13.0097 12.3768 12.6932 12.6932C12.3768 13.0097 11.9476 13.1875 11.5 13.1875C11.0524 13.1875 10.6232 13.0097 10.3068 12.6932C9.99029 12.3768 9.8125 11.9476 9.8125 11.5C9.8125 11.0524 9.99029 10.6232 10.3068 10.3068C10.6232 9.99029 11.0524 9.8125 11.5 9.8125Z" fill="black"/>
</svg>
