<svg width="52" height="52" viewBox="0 0 52 52" fill="none" xmlns="http://www.w3.org/2000/svg">
<path d="M11.3369 4.42871L9.09612 6.66629L12.4302 9.99878L14.6678 7.7612L11.3369 4.42871ZM40.5797 4.42871L37.2456 7.7612L39.4848 9.99878L42.8173 6.66788L40.5797 4.42871ZM25.9575 5.42177C25.4323 5.42602 24.9018 5.45997 24.3661 5.52363H24.3183C17.8634 6.26365 12.7262 11.4788 11.8334 17.9051C11.1204 23.0773 13.253 27.7673 16.8067 30.7879C18.2601 32.0286 19.2433 33.7309 19.5917 35.6099V45.1586H23.2202C23.774 46.1087 24.7846 46.7501 25.9575 46.7501C27.1304 46.7501 28.141 46.1087 28.6948 45.1586H32.3233V38.7928H32.4729V36.9022C32.4729 34.5691 33.6856 32.217 35.6558 30.3884C38.2912 27.7498 40.2805 24.0019 40.2805 19.6971C40.2805 11.8353 33.8097 5.34857 25.9575 5.42177ZM25.9575 8.60467C32.1085 8.51873 37.0976 13.5541 37.0976 19.6971C37.0976 23.0295 35.5539 25.9642 33.4166 28.0999L33.4675 28.1508C31.3444 30.1101 29.9712 32.7485 29.5844 35.6115H22.6234C22.2733 32.8838 21.1036 30.2436 18.8931 28.3498C16.081 25.9626 14.4052 22.3659 14.9654 18.3045C15.6608 13.2915 19.7286 9.26034 24.713 8.70811C25.1245 8.65104 25.539 8.61704 25.9543 8.60626L25.9575 8.60467ZM3.67725 19.6971V22.88H8.45159V19.6971H3.67725ZM43.4634 19.6971V22.88H48.2378V19.6971H43.4634ZM12.4302 32.5782L9.09772 35.9091L11.3369 38.1483L14.6662 34.8158L12.4302 32.5782ZM39.4848 32.5782L37.2472 34.8158L40.5781 38.1483L42.8173 35.9091L39.4848 32.5782ZM22.7746 38.7944H29.1404V41.9773H22.7746V38.7944Z" fill="black"/>
</svg>
