<svg width="24" height="24" viewBox="0 0 24 24" fill="none" xmlns="http://www.w3.org/2000/svg">
<rect width="24" height="24" rx="12" fill="white"/>
<g clip-path="url(#clip0_46_54)">
<path d="M18.8 8.39972V16.3997C18.8 16.8537 18.454 17.1997 18 17.1997H17.2V9.93932L12.4 13.3873L7.6 9.93932V17.1997H6.8C6.346 17.1997 6 16.8537 6 16.3997V8.39972C6 8.17252 6.0856 7.97252 6.2292 7.83092C6.30395 7.75603 6.39301 7.69697 6.49108 7.65725C6.58915 7.61753 6.69421 7.59796 6.8 7.59972H7.0668L12.4 11.4665L17.7332 7.59972H18C18.2272 7.59972 18.4272 7.68532 18.5708 7.83092C18.7144 7.97252 18.8 8.17252 18.8 8.39972Z" fill="black"/>
</g>
<defs>
<clipPath id="clip0_46_54">
<rect width="12.8" height="12.8" fill="white" transform="translate(6 6)"/>
</clipPath>
</defs>
</svg>
