<svg width="24" height="24" viewBox="0 0 24 24" fill="none" xmlns="http://www.w3.org/2000/svg">
<rect width="24" height="24" rx="12" fill="white"/>
<path fill-rule="evenodd" clip-rule="evenodd" d="M12.6721 10.6916V11.5967C12.8617 11.308 13.1229 11.0734 13.4303 10.916C13.7377 10.7585 14.0807 10.6836 14.4257 10.6985C16.2684 10.6985 16.6668 11.8505 16.6668 13.3492V16.4004H14.9601V13.6953C14.9601 13.05 14.83 12.2201 13.8252 12.2201C12.8508 12.2201 12.6844 12.9225 12.6844 13.6473V16.4004H10.9831V10.6916H12.6721ZM9.84013 9.25692C9.83992 9.42599 9.7898 9.59124 9.69606 9.73194C9.60232 9.87264 9.46913 9.98254 9.31319 10.0479C9.15731 10.1126 8.98568 10.1296 8.82014 10.0965C8.6546 10.0635 8.50264 9.98194 8.38359 9.86226C8.26432 9.7425 8.18312 9.59015 8.1502 9.42437C8.11728 9.25859 8.13412 9.08678 8.19859 8.93054C8.26305 8.7743 8.37228 8.64061 8.51252 8.54628C8.65277 8.45195 8.81778 8.40119 8.98679 8.40039C9.09912 8.40039 9.21035 8.42257 9.31409 8.46565C9.41783 8.50874 9.51204 8.57188 9.59133 8.65146C9.67061 8.73104 9.7334 8.82548 9.77609 8.92938C9.81879 9.03329 9.84055 9.14459 9.84013 9.25692Z" fill="black"/>
<path d="M9.83997 10.6982H8.1333V16.4001H9.83997V10.6982Z" fill="black"/>
</svg>
