<svg width="24" height="24" viewBox="0 0 24 24" fill="none" xmlns="http://www.w3.org/2000/svg">
<rect width="24" height="24" rx="12" fill="white"/>
<path d="M14.8534 9.10361C14.4889 8.68736 14.288 8.15289 14.2881 7.59961H12.6401V14.2129C12.6276 14.5709 12.4766 14.9101 12.2189 15.1588C11.9612 15.4076 11.6169 15.5465 11.2587 15.5463C10.5014 15.5463 9.87208 14.9276 9.87208 14.1596C9.87208 13.2423 10.7574 12.5543 11.6694 12.8369V11.1516C9.82942 10.9063 8.21875 12.3356 8.21875 14.1596C8.21875 15.9356 9.69075 17.1996 11.2534 17.1996C12.9281 17.1996 14.2881 15.8396 14.2881 14.1596V10.8049C14.9563 11.2849 15.7587 11.5424 16.5814 11.5409V9.89294C16.5814 9.89294 15.5788 9.94094 14.8534 9.10361Z" fill="black"/>
</svg>
