<svg width="24" height="24" viewBox="0 0 24 24" fill="none" xmlns="http://www.w3.org/2000/svg">
<rect width="24" height="24" rx="12" fill="white"/>
<path d="M12.001 5.60156C13.7388 5.60156 13.9562 5.60957 14.6387 5.64062C15.3199 5.67182 15.7854 5.77927 16.1934 5.9375C16.6147 6.10083 16.9711 6.31978 17.3271 6.67578C17.683 7.03144 17.9015 7.38873 18.0654 7.80957C18.2227 8.2164 18.3313 8.68125 18.3633 9.3623C18.3939 10.045 18.4014 10.2638 18.4014 12.002C18.4014 13.7394 18.3939 13.9574 18.3633 14.6396C18.3313 15.3207 18.2228 15.7863 18.0654 16.1934C17.9014 16.6141 17.6831 16.9714 17.3271 17.3271C16.9717 17.683 16.615 17.902 16.1943 18.0654C15.7871 18.2237 15.321 18.3321 14.6396 18.3633C13.9571 18.3943 13.7391 18.4014 12.001 18.4014C10.2633 18.4014 10.0449 18.3943 9.3623 18.3633C8.68129 18.3321 8.21573 18.2237 7.80859 18.0654C7.38817 17.902 7.03121 17.683 6.67578 17.3271C6.31993 16.9714 6.1011 16.6143 5.9375 16.1934C5.77937 15.7864 5.67196 15.321 5.64062 14.6396C5.6097 13.9572 5.60156 13.7396 5.60156 12.002C5.60156 10.2638 5.60911 10.045 5.63965 9.3623C5.67032 8.68152 5.77891 8.21653 5.9375 7.80957C6.10146 7.38887 6.31994 7.03143 6.67578 6.67578C7.03146 6.31997 7.38873 6.10096 7.80957 5.9375C8.21651 5.77923 8.68194 5.67183 9.36328 5.64062C10.0458 5.60957 10.264 5.60157 12.001 5.60156Z" fill="black"/>
<path d="M11.4307 6.75195C11.601 6.75169 11.7914 6.75195 12.0049 6.75195C13.7134 6.75195 13.9161 6.75742 14.5908 6.78809C15.2148 6.81663 15.5537 6.92119 15.7793 7.00879C16.0778 7.12477 16.2908 7.26337 16.5146 7.4873C16.7386 7.7113 16.8769 7.92497 16.9932 8.22363C17.0807 8.44893 17.1854 8.78741 17.2139 9.41113C17.2445 10.0858 17.251 10.2891 17.251 11.9971C17.251 13.7047 17.2445 13.9075 17.2139 14.582C17.1853 15.206 17.0808 15.5452 16.9932 15.7705C16.8772 16.069 16.7386 16.2821 16.5146 16.5059C16.2907 16.7297 16.078 16.8684 15.7793 16.9844C15.554 17.0724 15.2148 17.1765 14.5908 17.2051C13.9162 17.2357 13.7134 17.2422 12.0049 17.2422C10.2959 17.2422 10.0926 17.2357 9.41797 17.2051C8.79421 17.1763 8.45518 17.072 8.22949 16.9844C7.93096 16.8684 7.71807 16.7288 7.49414 16.5049C7.27021 16.2809 7.1309 16.0683 7.01465 15.7695C6.92709 15.5442 6.82333 15.2056 6.79492 14.582C6.76425 13.9074 6.75781 13.7042 6.75781 11.9951C6.75781 10.2864 6.76427 10.0846 6.79492 9.41016C6.82345 8.78632 6.92706 8.44728 7.01465 8.22168C7.13065 7.92301 7.27014 7.70935 7.49414 7.48535C7.71795 7.2616 7.93116 7.12303 8.22949 7.00684C8.45505 6.91885 8.79422 6.81483 9.41797 6.78613C10.0084 6.75947 10.2379 6.75133 11.4307 6.75V6.75195ZM12.0049 8.71094C10.1901 8.71124 8.71875 10.1832 8.71875 11.998C8.71897 13.8129 10.1909 15.2832 12.0059 15.2832C13.8206 15.283 15.2918 13.8128 15.292 11.998C15.292 10.183 13.82 8.71094 12.0049 8.71094ZM15.3457 7.81641C14.9587 7.85571 14.6565 8.18265 14.6562 8.58008C14.6562 9.00394 15 9.3484 15.4238 9.34863C15.8478 9.34863 16.1924 9.00408 16.1924 8.58008C16.1922 8.15627 15.8477 7.8125 15.4238 7.8125L15.3457 7.81641Z" fill="white"/>
<path d="M12.0005 9.86719C13.1787 9.86719 14.1339 10.8223 14.1339 12.0005C14.1339 13.1787 13.1787 14.1339 12.0005 14.1339C10.8223 14.1339 9.86719 13.1787 9.86719 12.0005C9.86719 10.8223 10.8223 9.86719 12.0005 9.86719Z" fill="white"/>
</svg>
