<svg width="48" height="70" viewBox="0 0 48 70" fill="none" xmlns="http://www.w3.org/2000/svg">
<path d="M24.0002 33.2918C21.7348 33.2918 19.5622 32.3919 17.9603 30.79C16.3584 29.1882 15.4585 27.0156 15.4585 24.7502C15.4585 22.4848 16.3584 20.3122 17.9603 18.7103C19.5622 17.1084 21.7348 16.2085 24.0002 16.2085C26.2656 16.2085 28.4382 17.1084 30.04 18.7103C31.6419 20.3122 32.5418 22.4848 32.5418 24.7502C32.5418 25.8719 32.3209 26.9826 31.8916 28.0189C31.4624 29.0552 30.8332 29.9969 30.04 30.79C29.2469 31.5832 28.3052 32.2124 27.2689 32.6416C26.2326 33.0709 25.1219 33.2918 24.0002 33.2918ZM24.0002 0.833496C17.6571 0.833496 11.5738 3.35328 7.08852 7.83853C2.60328 12.3238 0.0834961 18.4071 0.0834961 24.7502C0.0834961 42.6877 24.0002 69.1668 24.0002 69.1668C24.0002 69.1668 47.9168 42.6877 47.9168 24.7502C47.9168 18.4071 45.397 12.3238 40.9118 7.83853C36.4266 3.35328 30.3433 0.833496 24.0002 0.833496Z" fill="black"/>
</svg>
