<svg width="27" height="27" viewBox="0 0 27 27" fill="none" xmlns="http://www.w3.org/2000/svg">
<path d="M7.875 23.625V21.375H12.375V17.8875C11.4563 17.6812 10.6361 17.2924 9.91462 16.7209C9.19312 16.1494 8.66325 15.432 8.325 14.5687C6.91875 14.4 5.74237 13.7861 4.79588 12.7271C3.84938 11.6681 3.37575 10.4258 3.375 9V7.875C3.375 7.25625 3.5955 6.72675 4.0365 6.2865C4.4775 5.84625 5.007 5.62575 5.625 5.625H7.875V3.375H19.125V5.625H21.375C21.9937 5.625 22.5236 5.8455 22.9646 6.2865C23.4056 6.7275 23.6257 7.257 23.625 7.875V9C23.625 10.425 23.1514 11.6674 22.2041 12.7271C21.2569 13.7869 20.0805 14.4008 18.675 14.5687C18.3375 15.4312 17.808 16.1486 17.0865 16.7209C16.365 17.2931 15.5445 17.682 14.625 17.8875V21.375H19.125V23.625H7.875ZM7.875 12.15V7.875H5.625V9C5.625 9.7125 5.83125 10.3549 6.24375 10.9271C6.65625 11.4994 7.2 11.907 7.875 12.15ZM19.125 12.15C19.8 11.9062 20.3438 11.4983 20.7563 10.926C21.1688 10.3537 21.375 9.71175 21.375 9V7.875H19.125V12.15Z" fill="black"/>
</svg>
