<svg width="52" height="52" viewBox="0 0 52 52" fill="none" xmlns="http://www.w3.org/2000/svg">
<path d="M43.5523 8.12109L48.8868 9.18736C49.1732 9.24465 49.4088 9.45472 49.4915 9.738C49.5333 9.87561 49.5371 10.022 49.5023 10.1615C49.4676 10.3011 49.3956 10.4286 49.2942 10.5305L44.9241 14.9038C44.4004 15.4245 43.6923 15.7174 42.9539 15.7187H39.3286L30.2255 24.8249C30.3991 25.4807 30.4311 26.1659 30.3192 26.8349C30.2072 27.504 29.954 28.1415 29.5764 28.7051C29.1988 29.2686 28.7054 29.7452 28.1291 30.1031C27.5529 30.4609 26.9069 30.6919 26.2344 30.7806C25.5619 30.8693 24.8782 30.8136 24.2288 30.6174C23.5795 30.4211 22.9794 30.0887 22.4686 29.6423C21.9578 29.1959 21.548 28.6459 21.2665 28.0287C20.985 27.4115 20.8382 26.7414 20.8359 26.0631C20.8358 25.3304 21.0042 24.6076 21.3282 23.9505C21.6523 23.2934 22.1231 22.7197 22.7045 22.2738C23.2858 21.8279 23.9619 21.5218 24.6805 21.3791C25.3991 21.2364 26.1409 21.2611 26.8484 21.4511L35.9547 12.3416V8.72266C35.9547 7.98422 36.2475 7.27444 36.7695 6.75244L41.1428 2.37915C41.2447 2.2777 41.3723 2.20579 41.5118 2.17104C41.6514 2.13629 41.7977 2.14001 41.9353 2.18181C42.2186 2.26456 42.4287 2.5001 42.486 2.78656L43.5523 8.12109Z" fill="black"/>
<path d="M6.51455 26.0627C6.51782 28.7935 7.10671 31.4918 8.24149 33.9757C9.37627 36.4595 11.0305 38.6711 13.0927 40.4613C15.1549 42.2514 17.577 43.5785 20.1957 44.353C22.8144 45.1275 25.5687 45.3314 28.2729 44.9509C30.977 44.5704 33.5681 43.6143 35.8714 42.1473C38.1747 40.6803 40.1365 38.7363 41.6246 36.4466C43.1128 34.1569 44.0925 31.5746 44.4978 28.8741C44.9031 26.1735 44.7245 23.4175 43.974 20.7918C43.8687 20.485 43.8269 20.16 43.8511 19.8366C43.8754 19.5132 43.9652 19.198 44.1151 18.9104C44.265 18.6228 44.4719 18.3687 44.7232 18.1636C44.9744 17.9585 45.2648 17.8067 45.5766 17.7174C45.8884 17.628 46.2151 17.6031 46.5369 17.6441C46.8586 17.6851 47.1687 17.7912 47.4481 17.9558C47.7276 18.1205 47.9706 18.3402 48.1624 18.6018C48.3542 18.8634 48.4908 19.1612 48.5638 19.4773C50.0168 24.562 49.7408 29.9853 47.779 34.8963C45.8172 39.8072 42.2807 43.928 37.7242 46.6121C33.1676 49.2962 27.849 50.3917 22.6026 49.7268C17.3563 49.062 12.4791 46.6743 8.73621 42.9384C4.9974 39.1964 2.60715 34.3187 1.94075 29.0712C1.27434 23.8236 2.36951 18.5033 5.05431 13.9456C7.73912 9.38789 11.8615 5.85084 16.7743 3.88979C21.687 1.92874 27.112 1.65474 32.1973 3.1108C32.8029 3.28781 33.3137 3.69731 33.6182 4.24981C33.9227 4.80231 33.9961 5.45289 33.8224 6.05936C33.6487 6.66584 33.242 7.1789 32.6912 7.48642C32.1404 7.79395 31.4902 7.87093 30.8828 7.70054C28.0391 6.88396 25.0446 6.73926 22.1354 7.27785C19.2262 7.81644 16.482 9.02359 14.1191 10.8041C11.7562 12.5846 9.83934 14.8897 8.51964 17.5377C7.19995 20.1857 6.51354 23.1041 6.51455 26.0627Z" fill="black"/>
<path d="M16.0625 26.0624C16.0627 27.8022 16.5378 29.5088 17.4367 30.9984C18.3356 32.4879 19.6242 33.7037 21.1633 34.5147C22.7024 35.3257 24.4338 35.7011 26.1706 35.6004C27.9074 35.4997 29.5838 34.9267 31.0189 33.9433C32.4537 32.9573 33.5917 31.5979 34.3098 30.012C35.0279 28.426 35.2987 26.674 35.093 24.9452C35.0374 24.5257 35.0946 24.099 35.2587 23.7089C35.4228 23.3189 35.6879 22.9796 36.0267 22.7261C36.3655 22.4725 36.7658 22.3139 37.1863 22.2664C37.6068 22.219 38.0324 22.2845 38.4191 22.4562C38.8058 22.6257 39.1407 22.8947 39.3895 23.2358C39.6383 23.5768 39.7922 23.9778 39.8355 24.3978C40.1814 27.3518 39.599 30.3403 38.1693 32.9483C36.7396 35.5564 34.5335 37.6547 31.8571 38.952C29.1807 40.2493 26.1669 40.6812 23.2338 40.1879C20.3008 39.6945 17.5941 38.3004 15.4894 36.1989C13.3848 34.0974 11.9865 31.3928 11.4887 28.4605C10.9909 25.5283 11.4183 22.5138 12.7115 19.8354C14.0047 17.1571 16.0997 14.9477 18.7055 13.5141C21.3114 12.0804 24.299 11.4935 27.2535 11.8349C27.5699 11.8643 27.8772 11.9565 28.1575 12.1061C28.4378 12.2558 28.6853 12.4599 28.8857 12.7065C29.086 12.9531 29.2352 13.2372 29.3243 13.5421C29.4134 13.8471 29.4408 14.1668 29.4048 14.4825C29.3688 14.7981 29.2701 15.1034 29.1146 15.3805C28.959 15.6575 28.7497 15.9008 28.499 16.0959C28.2482 16.291 27.961 16.4341 27.6543 16.5168C27.3475 16.5995 27.0273 16.6201 26.7124 16.5774C25.3745 16.4221 24.0189 16.5515 22.7346 16.9573C21.4503 17.363 20.2663 18.0359 19.2605 18.9317C18.2547 19.8275 17.4497 20.926 16.8986 22.1549C16.3474 23.3839 16.0625 24.7155 16.0625 26.0624Z" fill="black"/>
</svg>
