<svg width="18" height="19" viewBox="0 0 18 19" fill="none" xmlns="http://www.w3.org/2000/svg">
<path d="M8.92897 0.806641C13.8604 0.806641 17.8579 4.80414 17.8579 9.73561C17.8579 14.6671 13.8604 18.6646 8.92897 18.6646C3.9975 18.6646 0 14.6671 0 9.73561C0 4.80414 3.9975 0.806641 8.92897 0.806641ZM8.92897 2.59243C7.03448 2.59243 5.21759 3.34502 3.87798 4.68462C2.53838 6.02423 1.78579 7.84112 1.78579 9.73561C1.78579 11.6301 2.53838 13.447 3.87798 14.7866C5.21759 16.1262 7.03448 16.8788 8.92897 16.8788C10.8235 16.8788 12.6403 16.1262 13.98 14.7866C15.3196 13.447 16.0721 11.6301 16.0721 9.73561C16.0721 7.84112 15.3196 6.02423 13.98 4.68462C12.6403 3.34502 10.8235 2.59243 8.92897 2.59243ZM8.92897 4.37823C9.14767 4.37826 9.35875 4.45855 9.52218 4.60388C9.68561 4.7492 9.79002 4.94946 9.81561 5.16666L9.82186 5.27112V9.36595L12.2389 11.783C12.3991 11.9437 12.492 12.1593 12.499 12.3861C12.5059 12.6128 12.4263 12.8337 12.2762 13.0039C12.1262 13.174 11.917 13.2807 11.6912 13.3022C11.4653 13.3237 11.2398 13.2585 11.0603 13.1197L10.9764 13.0456L8.29769 10.3669C8.15891 10.228 8.06979 10.0472 8.04411 9.85258L8.03607 9.73561V5.27112C8.03607 5.03431 8.13014 4.8072 8.29759 4.63975C8.46504 4.4723 8.69216 4.37823 8.92897 4.37823Z" fill="black"/>
</svg>
